<svg width="1673" height="259" viewBox="0 0 1673 259" fill="none" xmlns="http://www.w3.org/2000/svg">
<mask id="path-1-inside-1_0_10" fill="white">
<path d="M0.524002 5.69998H14.833L157.923 159.609V5.69998H199.803V250H185.843L42.404 95.742V250H0.524002V5.69998ZM331.256 250H287.631L401.405 2.20999H408.385L521.81 250H478.534L462.829 215.798H346.961L331.256 250ZM364.76 176.71H444.681L404.895 90.158L364.76 176.71ZM651.695 250H609.815V5.69998H686.944C783.268 5.69998 795.483 118.078 723.24 146.347L794.087 250H744.18L678.219 152.629H651.695V250ZM686.944 45.137H651.695V113.192H686.944C739.992 113.192 739.643 45.137 686.944 45.137ZM878.423 157.166V5.69998H920.303V157.166C920.303 195.207 948.921 214.053 977.19 214.053C1005.81 214.053 1034.08 195.207 1034.08 157.166V5.69998H1075.96V157.166C1075.96 224.523 1026.75 258.376 977.19 258.376C927.981 258.376 878.423 224.523 878.423 157.166ZM1239.72 44.788H1160.5V5.69998H1361.52V44.788H1281.6V250H1239.72V44.788ZM1547.19 255.584C1484.02 255.584 1421.2 213.006 1421.2 127.85C1421.2 42.694 1484.02 0.115993 1547.19 0.115993C1610.01 0.115993 1672.83 42.694 1672.83 127.85C1672.83 213.006 1610.01 255.584 1547.19 255.584ZM1547.19 42.345C1504.62 42.345 1462.39 70.614 1462.39 127.85C1462.39 185.086 1504.62 213.355 1547.19 213.355C1589.42 213.355 1632 185.086 1632 127.85C1632 70.614 1589.42 42.345 1547.19 42.345Z"/>
</mask>
<path d="M0.524002 5.69998V1.69998H-3.476V5.69998H0.524002ZM14.833 5.69998L17.7625 2.9764L16.5758 1.69998H14.833V5.69998ZM157.923 159.609L154.993 162.333L161.923 169.786V159.609H157.923ZM157.923 5.69998V1.69998H153.923V5.69998H157.923ZM199.803 5.69998H203.803V1.69998H199.803V5.69998ZM199.803 250V254H203.803V250H199.803ZM185.843 250L182.914 252.724L184.1 254H185.843V250ZM42.404 95.742L45.3333 93.0182L38.404 85.5662V95.742H42.404ZM42.404 250V254H46.404V250H42.404ZM0.524002 250H-3.476V254H0.524002V250ZM0.524002 9.69998H14.833V1.69998H0.524002V9.69998ZM11.9035 8.42357L154.993 162.333L160.853 156.885L17.7625 2.9764L11.9035 8.42357ZM161.923 159.609V5.69998H153.923V159.609H161.923ZM157.923 9.69998H199.803V1.69998H157.923V9.69998ZM195.803 5.69998V250H203.803V5.69998H195.803ZM199.803 246H185.843V254H199.803V246ZM188.772 247.276L45.3333 93.0182L39.4747 98.4658L182.914 252.724L188.772 247.276ZM38.404 95.742V250H46.404V95.742H38.404ZM42.404 246H0.524002V254H42.404V246ZM4.524 250V5.69998H-3.476V250H4.524ZM331.256 250V254H333.821L334.891 251.669L331.256 250ZM287.631 250L283.996 248.331L281.393 254H287.631V250ZM401.405 2.20999V-1.79001H398.84L397.77 0.5409L401.405 2.20999ZM408.385 2.20999L412.022 0.545132L410.953 -1.79001H408.385V2.20999ZM521.81 250V254H528.04L525.447 248.335L521.81 250ZM478.534 250L474.899 251.669L475.969 254H478.534V250ZM462.829 215.798L466.464 214.129L465.394 211.798H462.829V215.798ZM346.961 215.798V211.798H344.396L343.326 214.129L346.961 215.798ZM364.76 176.71L361.131 175.027L358.496 180.71H364.76V176.71ZM444.681 176.71V180.71H450.922L448.315 175.039L444.681 176.71ZM404.895 90.158L408.529 88.4873L404.911 80.6154L401.266 88.4753L404.895 90.158ZM331.256 246H287.631V254H331.256V246ZM291.266 251.669L405.04 3.87907L397.77 0.5409L283.996 248.331L291.266 251.669ZM401.405 6.20999H408.385V-1.79001H401.405V6.20999ZM404.748 3.87484L518.173 251.665L525.447 248.335L412.022 0.545132L404.748 3.87484ZM521.81 246H478.534V254H521.81V246ZM482.169 248.331L466.464 214.129L459.194 217.467L474.899 251.669L482.169 248.331ZM462.829 211.798H346.961V219.798H462.829V211.798ZM343.326 214.129L327.621 248.331L334.891 251.669L350.596 217.467L343.326 214.129ZM364.76 180.71H444.681V172.71H364.76V180.71ZM448.315 175.039L408.529 88.4873L401.261 91.8286L441.047 178.381L448.315 175.039ZM401.266 88.4753L361.131 175.027L368.389 178.393L408.524 91.8407L401.266 88.4753ZM651.695 250V254H655.695V250H651.695ZM609.815 250H605.815V254H609.815V250ZM609.815 5.69998V1.69998H605.815V5.69998H609.815ZM723.24 146.347L721.783 142.622L717.101 144.454L719.938 148.604L723.24 146.347ZM794.087 250V254H801.666L797.39 247.743L794.087 250ZM744.18 250L740.869 252.243L742.059 254H744.18V250ZM678.219 152.629L681.531 150.386L680.341 148.629H678.219V152.629ZM651.695 152.629V148.629H647.695V152.629H651.695ZM651.695 45.137V41.137H647.695V45.137H651.695ZM651.695 113.192H647.695V117.192H651.695V113.192ZM651.695 246H609.815V254H651.695V246ZM613.815 250V5.69998H605.815V250H613.815ZM609.815 9.69998H686.944V1.69998H609.815V9.69998ZM686.944 9.69998C733.259 9.69998 758.687 36.5012 764.376 66.1758C770.113 96.0954 755.94 129.256 721.783 142.622L724.698 150.072C762.784 135.169 778.625 98.0061 772.233 64.6694C765.795 31.0878 736.954 1.69998 686.944 1.69998V9.69998ZM719.938 148.604L790.785 252.257L797.39 247.743L726.543 144.09L719.938 148.604ZM794.087 246H744.18V254H794.087V246ZM747.492 247.757L681.531 150.386L674.908 154.872L740.869 252.243L747.492 247.757ZM678.219 148.629H651.695V156.629H678.219V148.629ZM647.695 152.629V250H655.695V152.629H647.695ZM686.944 41.137H651.695V49.137H686.944V41.137ZM647.695 45.137V113.192H655.695V45.137H647.695ZM651.695 117.192H686.944V109.192H651.695V117.192ZM686.944 117.192C701.092 117.192 712.062 112.634 719.514 105.435C726.938 98.2625 730.624 88.6961 730.599 79.1542C730.575 69.6135 726.841 60.0561 719.413 52.8916C711.957 45.6991 701.013 41.137 686.944 41.137V49.137C699.226 49.137 708.087 53.0817 713.86 58.6496C719.661 64.2454 722.58 71.7018 722.599 79.1748C722.619 86.6466 719.739 94.094 713.955 99.6817C708.199 105.243 699.32 109.192 686.944 109.192V117.192ZM878.423 5.69998V1.69998H874.423V5.69998H878.423ZM920.303 5.69998H924.303V1.69998H920.303V5.69998ZM1034.08 5.69998V1.69998H1030.08V5.69998H1034.08ZM1075.96 5.69998H1079.96V1.69998H1075.96V5.69998ZM882.423 157.166V5.69998H874.423V157.166H882.423ZM878.423 9.69998H920.303V1.69998H878.423V9.69998ZM916.303 5.69998V157.166H924.303V5.69998H916.303ZM916.303 157.166C916.303 177.277 923.908 192.608 935.493 202.869C947.003 213.063 962.205 218.053 977.19 218.053V210.053C963.905 210.053 950.664 205.62 940.797 196.881C931.006 188.209 924.303 175.096 924.303 157.166H916.303ZM977.19 218.053C992.341 218.053 1007.55 213.068 1019.02 202.864C1030.57 192.594 1038.08 177.261 1038.08 157.166H1030.08C1030.08 175.112 1023.45 188.222 1013.71 196.886C1003.89 205.615 990.656 210.053 977.19 210.053V218.053ZM1038.08 157.166V5.69998H1030.08V157.166H1038.08ZM1034.08 9.69998H1075.96V1.69998H1034.08V9.69998ZM1071.96 5.69998V157.166H1079.96V5.69998H1071.96ZM1071.96 157.166C1071.96 189.796 1060.07 214 1042.46 230.075C1024.78 246.21 1001.09 254.376 977.19 254.376V262.376C1002.85 262.376 1028.54 253.615 1047.85 235.984C1067.24 218.294 1079.96 191.893 1079.96 157.166H1071.96ZM977.19 254.376C953.47 254.376 929.772 246.213 912.046 230.072C894.387 213.992 882.423 189.787 882.423 157.166H874.423C874.423 191.902 887.238 218.302 906.66 235.987C926.015 253.612 951.7 262.376 977.19 262.376V254.376ZM1239.72 44.788H1243.72V40.788H1239.72V44.788ZM1160.5 44.788H1156.5V48.788H1160.5V44.788ZM1160.5 5.69998V1.69998H1156.5V5.69998H1160.5ZM1361.52 5.69998H1365.52V1.69998H1361.52V5.69998ZM1361.52 44.788V48.788H1365.52V44.788H1361.52ZM1281.6 44.788V40.788H1277.6V44.788H1281.6ZM1281.6 250V254H1285.6V250H1281.6ZM1239.72 250H1235.72V254H1239.72V250ZM1239.72 40.788H1160.5V48.788H1239.72V40.788ZM1164.5 44.788V5.69998H1156.5V44.788H1164.5ZM1160.5 9.69998H1361.52V1.69998H1160.5V9.69998ZM1357.52 5.69998V44.788H1365.52V5.69998H1357.52ZM1361.52 40.788H1281.6V48.788H1361.52V40.788ZM1277.6 44.788V250H1285.6V44.788H1277.6ZM1281.6 246H1239.72V254H1281.6V246ZM1243.72 250V44.788H1235.72V250H1243.72ZM1547.19 251.584C1516.47 251.584 1485.97 241.228 1463.19 220.68C1440.48 200.195 1425.2 169.365 1425.2 127.85H1417.2C1417.2 171.491 1433.34 204.528 1457.83 226.621C1482.26 248.651 1514.74 259.584 1547.19 259.584V251.584ZM1425.2 127.85C1425.2 86.3348 1440.48 55.5048 1463.19 35.0197C1485.97 14.4723 1516.47 4.11599 1547.19 4.11599V-3.88401C1514.74 -3.88401 1482.26 7.04865 1457.83 29.0793C1433.34 51.1722 1417.2 84.2092 1417.2 127.85H1425.2ZM1547.19 4.11599C1577.73 4.11599 1608.15 14.4693 1630.89 35.0172C1653.56 55.503 1668.83 86.3345 1668.83 127.85H1676.83C1676.83 84.2094 1660.7 51.1739 1636.25 29.0818C1611.88 7.05167 1579.47 -3.88401 1547.19 -3.88401V4.11599ZM1668.83 127.85C1668.83 169.365 1653.56 200.197 1630.89 220.683C1608.15 241.231 1577.73 251.584 1547.19 251.584V259.584C1579.47 259.584 1611.88 248.648 1636.25 226.618C1660.7 204.526 1676.83 171.491 1676.83 127.85H1668.83ZM1547.19 38.345C1525.05 38.345 1502.86 45.6911 1486.16 60.6543C1469.38 75.6819 1458.39 98.1672 1458.39 127.85H1466.39C1466.39 100.297 1476.51 80.0296 1491.49 66.6137C1506.54 53.1334 1526.76 46.345 1547.19 46.345V38.345ZM1458.39 127.85C1458.39 157.533 1469.38 180.018 1486.16 195.046C1502.86 210.009 1525.05 217.355 1547.19 217.355V209.355C1526.76 209.355 1506.54 202.567 1491.49 189.086C1476.51 175.67 1466.39 155.403 1466.39 127.85H1458.39ZM1547.19 217.355C1569.16 217.355 1591.35 210.006 1608.1 195.049C1624.92 180.027 1636 157.543 1636 127.85H1628C1628 155.393 1617.8 175.661 1602.77 189.083C1587.67 202.57 1567.45 209.355 1547.19 209.355V217.355ZM1636 127.85C1636 98.1565 1624.92 75.6728 1608.1 60.6507C1591.35 45.6941 1569.16 38.345 1547.19 38.345V46.345C1567.45 46.345 1587.67 53.1303 1602.77 66.6173C1617.8 80.0387 1628 100.307 1628 127.85H1636Z" fill="#A86422" mask="url(#path-1-inside-1_0_10)"/>
</svg>
